<?xml version="1.0" encoding="utf-8"?>
<!-- Generator: Adobe Illustrator 19.2.1, SVG Export Plug-In . SVG Version: 6.00 Build 0)  -->
<svg version="1.1" id="_x33_c8dc84b-795c-4763-b457-ed5cc133051e"
	 xmlns="http://www.w3.org/2000/svg" xmlns:xlink="http://www.w3.org/1999/xlink" x="0px" y="0px" width="500px" height="500px"
	 viewBox="0 0 500 500" enable-background="new 0 0 500 500" xml:space="preserve">
<path d="M250,1C112.1,1,0,113.1,0,251c0,137.9,112.1,250,250,250s250-112.1,250-250C500,113.1,387.9,1,250,1z M250,43.5
	c114.7,0,207.5,92.8,207.5,207.5S364.7,458.5,250,458.5S42.5,365.7,42.5,251S135.3,43.5,250,43.5z M384.7,104.2
	c-0.4,0-0.9,0.1-1.3,0.2c-1.5,0.2-2.9,0.7-4.2,1.5l-146.7,82.1c-0.9,0.4-1.7,1-2.4,1.6c-19.5,6.3-35,21.8-41.4,41.2
	c-0.7,0.8-1.3,1.6-1.8,2.6l-82.1,146.7c-3.1,5.7-1.1,12.8,4.6,15.9c3.5,2,7.8,2,11.4,0l146.7-82.1c1.1-0.4,2.2-1.1,3.1-1.8
	c19.3-6.5,34.6-22,40.9-41.4c0.6-0.7,1.2-1.4,1.6-2.2l82.1-146.7c3.2-5.6,1.3-12.8-4.3-16C389,104.6,386.9,104.1,384.7,104.2z
	 M351,150l-43.3,77.2c-6.4-15.3-18.6-27.6-33.9-33.9L351,150z M250,220.4c17,0,30.6,13.6,30.6,30.6S267,281.6,250,281.6
	S219.4,268,219.4,251S233,220.4,250,220.4z M192.3,274.8c6.4,15.3,18.6,27.6,33.9,33.9L149,352L192.3,274.8z"/>
</svg>
