<?xml version="1.0" encoding="utf-8"?>
<!-- Generator: Adobe Illustrator 19.2.1, SVG Export Plug-In . SVG Version: 6.00 Build 0)  -->
<svg version="1.1" id="Layer_1" xmlns="http://www.w3.org/2000/svg" xmlns:xlink="http://www.w3.org/1999/xlink" x="0px" y="0px"
	 width="500px" height="500px" viewBox="0 0 500 500" enable-background="new 0 0 500 500" xml:space="preserve">
<path d="M249.3,500c7.3,0,13.2-5.9,13.2-13.2V44.2l116.1,116.1c5.3,5.3,13.2,5.3,18.5,0c5.3-5.3,5.3-13.2,0-18.5L259.2,4
	C254-1.3,246-1.3,240.8,4L102.9,141.2c-2.6,2.6-4,5.9-4,9.2s1.3,6.6,4,9.2c5.3,5.3,13.2,5.3,18.5,0L236.1,44.9v442
	C236.1,494.1,242.1,500,249.3,500z"/>
</svg>
