<?xml version="1.0" encoding="utf-8"?>
<!-- Generator: Adobe Illustrator 19.2.1, SVG Export Plug-In . SVG Version: 6.00 Build 0)  -->
<svg version="1.1" id="Layer_1" xmlns="http://www.w3.org/2000/svg" xmlns:xlink="http://www.w3.org/1999/xlink" x="0px" y="0px"
	 width="500px" height="500px" viewBox="0 0 500 500" enable-background="new 0 0 500 500" xml:space="preserve">
<path d="M0,249.3c0,7.3,5.9,13.2,13.2,13.2h442.6L339.7,378.6c-5.3,5.3-5.3,13.2,0,18.5s13.2,5.3,18.5,0L496,259.2
	c5.3-5.3,5.3-13.2,0-18.5L358.8,102.9c-2.6-2.6-5.9-4-9.2-4s-6.6,1.3-9.2,4c-5.3,5.3-5.3,13.2,0,18.5l114.8,114.8h-442
	C5.9,236.1,0,242.1,0,249.3z"/>
</svg>
