<?xml version="1.0" encoding="utf-8"?>
<!-- Generator: Adobe Illustrator 19.2.1, SVG Export Plug-In . SVG Version: 6.00 Build 0)  -->
<svg version="1.1" id="Layer_1" xmlns="http://www.w3.org/2000/svg" xmlns:xlink="http://www.w3.org/1999/xlink" x="0px" y="0px"
	 width="500px" height="500px" viewBox="0 0 500 500" enable-background="new 0 0 500 500" xml:space="preserve">
<path d="M500,250.7c0-7.3-5.9-13.2-13.2-13.2H44.2l116.1-116.1c5.3-5.3,5.3-13.2,0-18.5s-13.2-5.3-18.5,0L4,240.8
	c-5.3,5.3-5.3,13.2,0,18.5l137.2,137.9c2.6,2.6,5.9,4,9.2,4c3.3,0,6.6-1.3,9.2-4c5.3-5.3,5.3-13.2,0-18.5L44.9,263.9l442,0
	C494.1,263.9,500,257.9,500,250.7z"/>
</svg>
