<?xml version="1.0" encoding="utf-8"?>
<!-- Generator: Adobe Illustrator 19.2.1, SVG Export Plug-In . SVG Version: 6.00 Build 0)  -->
<svg version="1.1" id="_x36_25a4390-ff90-4cdf-a954-aafa8de6885f"
	 xmlns="http://www.w3.org/2000/svg" xmlns:xlink="http://www.w3.org/1999/xlink" x="0px" y="0px" width="74.8px" height="60.5px"
	 viewBox="0 0 74.8 60.5" enable-background="new 0 0 74.8 60.5" xml:space="preserve">
<title>check-mark</title>
<path d="M66.9,0.2l7.6,6.4c0.4,0.4,0.5,1,0.1,1.4c0,0,0,0,0,0L30.9,60.1c-0.2,0.3-0.5,0.4-0.9,0.4c-0.2,0-0.4-0.1-0.6-0.2L0.4,35.8
	c-0.4-0.3-0.5-1-0.2-1.4c0,0,0,0,0,0l6.9-7.9c0.4-0.4,1-0.5,1.4-0.1c0,0,0,0,0,0l20.8,17.5L65.5,0.4C65.9-0.1,66.5-0.1,66.9,0.2
	C66.9,0.2,66.9,0.2,66.9,0.2z"/>
</svg>
