<?xml version="1.0" encoding="utf-8"?>
<!-- Generator: Adobe Illustrator 19.2.1, SVG Export Plug-In . SVG Version: 6.00 Build 0)  -->
<svg version="1.1" id="_x38_af9d25d-00e0-4210-9357-ebbc0d533450"
	 xmlns="http://www.w3.org/2000/svg" xmlns:xlink="http://www.w3.org/1999/xlink" x="0px" y="0px" width="500px" height="500px"
	 viewBox="0 0 500 500" enable-background="new 0 0 500 500" xml:space="preserve">
<title>ckeck-mark-circle</title>
<g>
	<path fill="none" d="M221.3,378.9l-10.1-12l-0.5,0.4l-12.8-16.2l-7.4-8.8l0.3-0.2l-86-109.1L149,198l84.9,107.7l195.4-165.2
		c-8.6-14-18.9-27.1-30.8-39C358.8,61.8,306.1,40,250,40c-56.1,0-108.8,21.8-148.5,61.5C61.8,141.2,40,193.9,40,250
		c0,56.1,21.8,108.8,61.5,148.5C141.2,438.2,193.9,460,250,460c56.1,0,108.8-21.8,148.5-61.5C438.2,358.8,460,306.1,460,250
		c0-22.2-3.4-43.8-10-64.4L221.3,378.9z"/>
	<path d="M250,0C111.9,0,0,111.9,0,250s111.9,250,250,250s250-111.9,250-250S388.1,0,250,0z M398.5,398.5
		C358.8,438.2,306.1,460,250,460c-56.1,0-108.8-21.8-148.5-61.5C61.8,358.8,40,306.1,40,250c0-56.1,21.8-108.8,61.5-148.5
		C141.2,61.8,193.9,40,250,40c56.1,0,108.8,21.8,148.5,61.5c11.9,11.9,22.2,25,30.8,39L233.9,305.7L149,198L104.7,233l86,109.1
		l-0.3,0.2l7.4,8.8l12.8,16.2l0.5-0.4l10.1,12L450,185.6c6.6,20.5,10,42.2,10,64.4C460,306.1,438.2,358.8,398.5,398.5z"/>
</g>
</svg>
