<?xml version="1.0" encoding="utf-8"?>
<!-- Generator: Adobe Illustrator 19.2.1, SVG Export Plug-In . SVG Version: 6.00 Build 0)  -->
<svg version="1.1" id="_x33_8d685d5-854e-45bc-9552-95c26eae2a76"
	 xmlns="http://www.w3.org/2000/svg" xmlns:xlink="http://www.w3.org/1999/xlink" x="0px" y="0px" width="57.1px" height="63.2px"
	 viewBox="0 0 57.1 63.2" enable-background="new 0 0 57.1 63.2" xml:space="preserve">
<title>cube</title>
<path d="M57,13.6L57,13.6c0-0.3-0.2-0.7-0.5-0.9L29.6,0.1c-0.3-0.2-0.7-0.2-1,0L0.5,13.4l0,0c0,0-0.1,0.1-0.1,0.1
	C0.2,13.6,0,13.9,0,14.2l0,0l0.1,32.4c0,0.4,0.2,0.7,0.5,0.9l26.9,15.6l0,0c0.2,0.1,0.3,0.1,0.5,0.1c0.1,0,0.2,0,0.3,0l0,0
	c0.1,0,0.2-0.1,0.2-0.1l28.1-16.3c0.3-0.2,0.5-0.5,0.5-0.9L57,13.6z M29,5.3l19,8.7l-7.9,4.6L28,25.6L10.1,15.2L9,14.5L29,5.3z
	 M4.6,44.5L4.5,20.3l20,11.6l0.1,24.1L4.6,44.5z M31.5,56.1l-0.1-24.2l21-12.2l0.1,24.2L31.5,56.1z"/>
</svg>
