<?xml version="1.0" encoding="utf-8"?>
<!-- Generator: Adobe Illustrator 19.2.1, SVG Export Plug-In . SVG Version: 6.00 Build 0)  -->
<svg version="1.1" id="_x38_0f45302-cbda-4b62-85ac-6fdbc8773f89"
	 xmlns="http://www.w3.org/2000/svg" xmlns:xlink="http://www.w3.org/1999/xlink" x="0px" y="0px" width="336px" height="400px"
	 viewBox="0 0 336 400" enable-background="new 0 0 336 400" xml:space="preserve">
<title>document</title>
<g>
	<polygon fill="none" points="219.4,123.4 219.6,84.6 219.8,47 218.8,46 40.8,46 40.8,354 295.2,354 295.2,123 258.2,123.2 	"/>
	<path d="M235.3,0H0v400h336V100.7L235.3,0z M295.2,354H40.8V46h178l1,1l0-1.2l38.6,38.6L297,123l-1.8,0V354z"/>
	<polygon points="258.4,84.4 219.8,45.8 219.8,47 219.6,84.6 219.4,123.4 258.2,123.2 295.2,123 297,123 	"/>
</g>
</svg>
