<svg id="3aca5f28-7a07-46d8-973e-9405782bdfd6" data-name="Layer 1" xmlns="http://www.w3.org/2000/svg" viewBox="0 0 71.05 71.05"><title>expand</title><polygon points="8.53 62.53 8.53 5.05 0 5.05 0 71.05 67.8 71.05 67.8 62.53 8.53 62.53"/><path d="M71,4.26V30.19a4.26,4.26,0,0,1-8.53,0V14.56L26.23,50.85a4.26,4.26,0,0,1-6-6L56.49,8.53H40.86a4.26,4.26,0,1,1,0-8.53H66.79a4.76,4.76,0,0,1,.86.09l0.4,0.11a2.52,2.52,0,0,1,.39.15,2.18,2.18,0,0,1,.32.15,2.49,2.49,0,0,1,.36.21,3.85,3.85,0,0,1,.35.26,3.78,3.78,0,0,1,.32.29A4.31,4.31,0,0,1,70.86,3c0,0.14.07,0.28,0.11,0.42A4.65,4.65,0,0,1,71,4.26Z" transform="translate(0)"/></svg>