<?xml version="1.0" encoding="utf-8"?>
<!-- Generator: Adobe Illustrator 19.2.1, SVG Export Plug-In . SVG Version: 6.00 Build 0)  -->
<svg version="1.1" id="bbd0bee2-2f0f-4c00-941a-c0a0e28e9903"
	 xmlns="http://www.w3.org/2000/svg" xmlns:xlink="http://www.w3.org/1999/xlink" x="0px" y="0px" width="465.7px" height="465.7px"
	 viewBox="0 0 465.7 465.7" enable-background="new 0 0 465.7 465.7" xml:space="preserve">
<title>home</title>
<path d="M424.8,30c6,0,10.9,4.9,10.9,10.9v383.9c0,6-4.9,10.9-10.9,10.9H40.9c-6,0-10.9-4.9-10.9-10.9V40.9c0-6,4.9-10.9,10.9-10.9
	H424.8 M424.8,0H40.9C18.3,0,0,18.3,0,40.9v383.9c0,22.6,18.3,40.9,40.9,40.9h383.9c22.6,0,40.9-18.3,40.9-40.9V40.9
	C465.7,18.3,447.4,0,424.8,0L424.8,0z"/>
<g>
	<g>
		<path d="M235.8,325.7c-73,0-132.3-59.4-132.3-132.4c0-73,59.4-132.4,132.3-132.4c73,0,132.4,59.4,132.4,132.4
			C368.1,266.3,308.7,325.7,235.8,325.7z M235.8,86.3c-59,0-107.1,48-107.1,107.1c0,59,48,107.1,107.1,107.1
			c59,0,107.1-48,107.1-107.1C342.8,134.3,294.8,86.3,235.8,86.3z"/>
	</g>
</g>
<g>
	<rect x="84.7" y="369.4" width="304.4" height="30"/>
</g>
</svg>
