<?xml version="1.0" encoding="utf-8"?>
<!-- Generator: Adobe Illustrator 19.2.1, SVG Export Plug-In . SVG Version: 6.00 Build 0)  -->
<svg version="1.1" id="Layer_1" xmlns="http://www.w3.org/2000/svg" xmlns:xlink="http://www.w3.org/1999/xlink" x="0px" y="0px"
	 width="500px" height="500px" viewBox="0 0 500 500" enable-background="new 0 0 500 500" xml:space="preserve">
<g>
	<path fill="#FFFFFF" d="M250,485c-62.8,0-121.8-24.4-166.2-68.8C39.4,371.8,15,312.8,15,250c0-62.8,24.4-121.8,68.8-166.2
		C128.2,39.4,187.2,15,250,15c62.8,0,121.8,24.4,166.2,68.8C460.6,128.2,485,187.2,485,250c0,62.8-24.4,121.8-68.8,166.2
		S312.8,485,250,485z"/>
	<path d="M250,30c29.7,0,58.5,5.8,85.6,17.3c26.2,11.1,49.7,26.9,69.9,47.2c20.2,20.2,36.1,43.7,47.2,69.9
		c11.5,27.1,17.3,55.9,17.3,85.6s-5.8,58.5-17.3,85.6c-11.1,26.2-26.9,49.7-47.2,69.9c-20.2,20.2-43.7,36.1-69.9,47.2
		C308.5,464.2,279.7,470,250,470s-58.5-5.8-85.6-17.3c-26.2-11.1-49.7-26.9-69.9-47.2c-20.2-20.2-36.1-43.7-47.2-69.9
		C35.8,308.5,30,279.7,30,250s5.8-58.5,17.3-85.6c11.1-26.2,26.9-49.7,47.2-69.9s43.7-36.1,69.9-47.2C191.5,35.8,220.3,30,250,30
		 M250,0C111.9,0,0,111.9,0,250s111.9,250,250,250s250-111.9,250-250S388.1,0,250,0L250,0z"/>
</g>
<path d="M272.1,193.4V373c0,14,1,23.3,3.1,28c2,4.6,5,8.1,9,10.4c4,2.3,11.3,3.4,21.9,3.4v8.8H197.4v-8.8c10.9,0,18.2-1.1,22-3.2
	c3.7-2.1,6.7-5.6,8.9-10.5s3.3-14.2,3.3-28.1v-86.2c0-24.2-0.7-40-2.2-47.1c-1.1-5.2-2.9-8.8-5.4-10.9c-2.4-2-5.8-3.1-10-3.1
	c-4.6,0-10.1,1.2-16.6,3.7l-3.4-8.8l67.4-27.3H272.1z"/>
<path d="M251.8,76.4c6.8,0,12.7,2.4,17.5,7.2c4.8,4.8,7.2,10.6,7.2,17.5s-2.4,12.7-7.2,17.6c-4.8,4.9-10.6,7.3-17.5,7.3
	s-12.7-2.4-17.6-7.3c-4.9-4.9-7.3-10.7-7.3-17.6s2.4-12.7,7.2-17.5C238.9,78.8,244.8,76.4,251.8,76.4z"/>
</svg>
