<?xml version="1.0" encoding="utf-8"?>
<!-- Generator: Adobe Illustrator 19.2.1, SVG Export Plug-In . SVG Version: 6.00 Build 0)  -->
<svg version="1.1" id="Layer_1" xmlns="http://www.w3.org/2000/svg" xmlns:xlink="http://www.w3.org/1999/xlink" x="0px" y="0px"
	 width="500px" height="500px" viewBox="0 0 500 500" enable-background="new 0 0 500 500" xml:space="preserve">
<path d="M250,0C111.9,0,0,111.9,0,250s111.9,250,250,250s250-111.9,250-250S388.1,0,250,0z M234.1,83.6c4.8-4.8,10.7-7.2,17.7-7.2
	c6.8,0,12.7,2.4,17.5,7.2c4.8,4.8,7.2,10.6,7.2,17.5s-2.4,12.7-7.2,17.6c-4.8,4.9-10.6,7.3-17.5,7.3s-12.7-2.4-17.6-7.3
	c-4.9-4.9-7.3-10.7-7.3-17.6S229.3,88.4,234.1,83.6z M306,423.6H197.4v-8.8c10.9,0,18.2-1.1,22-3.2c3.7-2.1,6.7-5.6,8.9-10.5
	s3.3-14.2,3.3-28.1v-86.2c0-24.2-0.7-40-2.2-47.1c-1.1-5.2-2.9-8.8-5.4-10.9c-2.4-2-5.8-3.1-10-3.1c-4.6,0-10.1,1.2-16.6,3.7
	l-3.4-8.8l67.4-27.3h10.7V373c0,14,1,23.3,3.1,28c2,4.6,5,8.1,9,10.4c4,2.3,11.3,3.4,21.9,3.4V423.6z"/>
</svg>
