<?xml version="1.0" encoding="utf-8"?>
<!-- Generator: Adobe Illustrator 19.2.1, SVG Export Plug-In . SVG Version: 6.00 Build 0)  -->
<svg version="1.1" id="_x31_9ac3e19-27ac-419a-8f11-9f1c77e277d5"
	 xmlns="http://www.w3.org/2000/svg" xmlns:xlink="http://www.w3.org/1999/xlink" x="0px" y="0px" width="98.6px" height="98.6px"
	 viewBox="0 0 98.6 98.6" enable-background="new 0 0 98.6 98.6" xml:space="preserve">
<title>noun_26259_cc</title>
<path fill="none" d="M38.3,7C21,7,7,21,7,38.3c0,0,0,0,0,0c0,17.3,14,31.3,31.3,31.3c17.3,0,31.3-14,31.3-31.3S55.5,7,38.3,7z"/>
<path d="M70.6,61.7c13.5-16.3,8.3-39.4-8-53C46.4-4.8,22.3-2.6,8.7,13.7c-13.5,16.3-11.3,40.4,5,54c14.2,11.8,33.8,14.8,48,3l28,28
	l9-9L70.6,61.7z M38.3,66.6C22.6,66.6,10,53.9,10,38.3c0,0,0,0,0,0C10,22.6,22.7,10,38.3,10c15.6,0,28.3,12.7,28.3,28.3
	S53.9,66.6,38.3,66.6z"/>
</svg>
