<?xml version="1.0" encoding="utf-8"?>
<!-- Generator: Adobe Illustrator 19.2.1, SVG Export Plug-In . SVG Version: 6.00 Build 0)  -->
<svg version="1.1" id="a69126e8-7f50-4d8b-ac58-c20202776e24"
	 xmlns="http://www.w3.org/2000/svg" xmlns:xlink="http://www.w3.org/1999/xlink" x="0px" y="0px" width="90px" height="90px"
	 viewBox="0 0 90 90" enable-background="new 0 0 90 90" xml:space="preserve">
<title>minus-rounded-square</title>
<path d="M11.8,90h66.3C84.7,90,90,84.7,90,78.2V11.8C90,5.3,84.7,0,78.2,0H11.8C5.3,0,0,5.3,0,11.8v66.3C0,84.7,5.3,90,11.8,90z
	 M9.5,15.8c0-3.5,2.8-6.3,6.3-6.3h58.5c3.5,0,6.3,2.8,6.3,6.3v58.5c0,3.5-2.8,6.3-6.3,6.3H15.8c-3.5,0-6.3-2.8-6.3-6.3V15.8
	C9.5,15.8,9.5,15.8,9.5,15.8z"/>
<path d="M19.2,49.7h51.6c1.7,0,3.1-2.1,3.1-4.7c0-2.6-1.4-4.7-3.1-4.7H19.2c-1.7,0-3.1,2.1-3.1,4.7C16.1,47.6,17.5,49.7,19.2,49.7z"
	/>
</svg>
