<?xml version="1.0" encoding="utf-8"?>
<!-- Generator: Adobe Illustrator 19.2.1, SVG Export Plug-In . SVG Version: 6.00 Build 0)  -->
<svg version="1.1" id="_x32_85cfe4f-d02f-4ffa-9516-84acb7392270"
	 xmlns="http://www.w3.org/2000/svg" xmlns:xlink="http://www.w3.org/1999/xlink" x="0px" y="0px" width="127px" height="126.9px"
	 viewBox="0 0 127 126.9" enable-background="new 0 0 127 126.9" xml:space="preserve">
<title>monitor</title>
<g>
	<rect x="69.2" y="69.7" fill="none" width="17.5" height="4.7"/>
	<rect x="40.3" y="69.7" fill="none" width="17.3" height="4.7"/>
	<rect x="61.7" y="69.7" fill="none" width="3.6" height="4.7"/>
	<rect x="61.7" y="79" fill="none" width="3.6" height="42.7"/>
	<path fill="none" d="M11.5,59.7h104V11.5h-104V59.7z M94.4,40.6H32.6v-6.3h61.8V40.6z M26.3,24.5h74.5v6.3H26.3V24.5z"/>
	<path d="M86.7,74.4H69.2v-4.7h-3.9v4.7h-3.6v-4.7h-4.1v4.7H40.3v-4.7h-4.6v4.7v0.2V79h21.9v42.7H35.7v5.2h55.6v-5.2H69.2V79h22.1
		v-4.4v-0.2v-4.7h-4.6V74.4z M65.3,121.7h-3.6V79h3.6V121.7z"/>
	<path d="M1.5,1.5v68.2h34.2h4.6h17.3h4.1h3.6h3.9h17.5h4.6h34.2V1.5H1.5z M115.5,59.7h-104V11.5h104V59.7z"/>
	<rect x="26.3" y="24.5" width="74.5" height="6.3"/>
	<rect x="32.6" y="34.4" width="61.8" height="6.3"/>
</g>
</svg>
