<?xml version="1.0" encoding="utf-8"?>
<!-- Generator: Adobe Illustrator 19.2.1, SVG Export Plug-In . SVG Version: 6.00 Build 0)  -->
<svg version="1.1" id="_x31_c28d69d-8f38-4757-9309-dbcaacdd114e"
	 xmlns="http://www.w3.org/2000/svg" xmlns:xlink="http://www.w3.org/1999/xlink" x="0px" y="0px" width="270.4px" height="206.2px"
	 viewBox="0 0 270.4 206.2" enable-background="new 0 0 270.4 206.2" xml:space="preserve">
<title>play-in-browser</title>
<path d="M167.8,117L112.5,85c-1.4-0.9-3.1-0.9-4.5,0c-1.4,0.8-2.3,2.3-2.3,3.9v64c0,1.6,0.9,3.1,2.3,3.9c0.7,0.4,1.5,0.6,2.3,0.6
	c0.8,0,1.6-0.2,2.3-0.6l55.3-31.9c1.4-0.8,2.3-2.3,2.3-3.9C170.2,119.3,169.3,117.8,167.8,117z M120.5,139.1v-36.3l31.4,18.3
	L120.5,139.1z"/>
<path d="M267.3,0H3.1C1.4,0,0,1.4,0,3.1v200c0,1.7,1.4,3.1,3.1,3.1h264.2c1.7,0,3.1-1.4,3.1-3.1V3.1C270.4,1.4,269,0,267.3,0z
	 M254.2,16.2v24.3h-238V16.2 M16.2,192V54.7h238v137.2"/>
<path d="M200.3,35.9c4,0,7.3-3.2,7.3-7.3s-3.2-7.3-7.3-7.3c-4,0-7.3,3.2-7.3,7.3c0,0,0,0,0,0C193.1,32.6,196.3,35.8,200.3,35.9z
	 M200.3,28.2c0.2,0,0.4,0.2,0.4,0.4c0,0.2-0.2,0.4-0.4,0.4c-0.2,0-0.4-0.2-0.4-0.4C199.9,28.3,200.1,28.2,200.3,28.2z"/>
<path d="M219.2,35.9c4,0,7.3-3.2,7.3-7.3s-3.2-7.3-7.3-7.3c0,0,0,0,0,0c-4,0.1-7.2,3.3-7.3,7.3C212,32.6,215.2,35.8,219.2,35.9z
	 M219.2,28.2c0.2,0,0.4,0.2,0.4,0.4c0,0.2-0.2,0.4-0.4,0.4c-0.2,0-0.4-0.2-0.4-0.4C218.9,28.4,219,28.2,219.2,28.2z"/>
<path d="M238.2,35.9c4,0,7.3-3.2,7.3-7.3s-3.2-7.3-7.3-7.3c0,0,0,0,0,0c-4,0.1-7.2,3.3-7.3,7.3c0,4,3.2,7.2,7.1,7.3
	C238.2,35.9,238.2,35.9,238.2,35.9z M238.2,28.2c0.2,0,0.4,0.2,0.4,0.4c0,0.2-0.2,0.4-0.4,0.4c-0.2,0-0.4-0.2-0.4-0.4
	C237.9,28.3,238,28.2,238.2,28.2z"/>
</svg>
