<?xml version="1.0" encoding="utf-8"?>
<!-- Generator: Adobe Illustrator 19.2.1, SVG Export Plug-In . SVG Version: 6.00 Build 0)  -->
<svg version="1.1" id="cbe6d7de-f343-4227-9338-e518a1604859"
	 xmlns="http://www.w3.org/2000/svg" xmlns:xlink="http://www.w3.org/1999/xlink" x="0px" y="0px" width="89.9px" height="63.6px"
	 viewBox="0 0 89.9 63.6" enable-background="new 0 0 89.9 63.6" xml:space="preserve">
<title>cart</title>
<path d="M0,2c0,1.1,0.9,2,2,2h13l13.3,41.4c0.3,0.8,1,1.4,1.9,1.4h46.2c0.9,0,1.6-0.6,1.9-1.4l10.1-29.7c0.1-0.2,0.2-0.4,0.2-0.6
	l1.2-3.4c0.6-0.9,0.3-2.2-0.7-2.7s-2.2-0.3-2.7,0.7c-0.1,0.2-0.2,0.5-0.3,0.7l-0.8,2.4H22.1L18.4,1.4c-0.3-0.8-1-1.4-1.9-1.4H2
	C0.9,0,0,0.9,0,2z M23.3,16.8h60.6l-8.8,26H31.7L23.3,16.8z"/>
<path d="M27,56.8c0,3.8,3,6.8,6.8,6.8c3.8,0,6.8-3,6.8-6.8c0-3.8-3-6.8-6.8-6.8l0,0c-3.7,0-6.8,3-6.8,6.7C27,56.7,27,56.8,27,56.8z
	 M31,56.8c0-1.5,1.3-2.8,2.8-2.8c1.5,0,2.8,1.2,2.8,2.7c0,0,0,0.1,0,0.1c0,1.5-1.3,2.8-2.8,2.8S31,58.4,31,56.8
	C31,56.8,31,56.8,31,56.8z"/>
<path d="M66,56.8c0,3.8,3,6.8,6.8,6.8c3.8,0,6.8-3,6.8-6.8c0-3.8-3-6.8-6.8-6.8c-3.7,0-6.8,3-6.8,6.7C66,56.7,66,56.8,66,56.8z
	 M70,56.8c0-1.5,1.3-2.8,2.8-2.8l0,0c1.5,0,2.8,1.2,2.8,2.7c0,0,0,0.1,0,0.1c0,1.5-1.3,2.8-2.8,2.8S70,58.3,70,56.8L70,56.8z"/>
</svg>
