<?xml version="1.0" encoding="utf-8"?>
<!-- Generator: Adobe Illustrator 19.2.1, SVG Export Plug-In . SVG Version: 6.00 Build 0)  -->
<svg version="1.1" id="_x33_8df9fc7-6766-46c4-a866-262a9f1710b0"
	 xmlns="http://www.w3.org/2000/svg" xmlns:xlink="http://www.w3.org/1999/xlink" x="0px" y="0px" width="500px" height="500px"
	 viewBox="0 0 500 500" enable-background="new 0 0 500 500" xml:space="preserve">
<title>radio-tower</title>
<g>
	<polygon fill="none" points="250.6,187.1 235.5,239.7 265.8,239.7 	"/>
	<polygon fill="none" points="277.5,280.3 271.4,259.2 252.7,259.2 	"/>
	<polygon fill="none" points="303.7,371.1 290.4,325.1 216.3,371.1 	"/>
	<path fill="none" d="M321.5,432.6l-12.2-42.2c-0.8,0.2-1.6,0.3-2.4,0.3c0,0,0,0,0,0h-77.7L321.5,432.6z"/>
	<polygon fill="none" points="228.4,264.7 217.7,302 272.6,302 	"/>
	<polygon fill="none" points="329.3,459.8 172.5,459.8 165.3,484.9 336.5,484.9 	"/>
	<polygon fill="none" points="212.1,321.6 201.7,357.9 260,321.6 	"/>
	<polygon fill="none" points="190.9,395.5 178.1,440.2 288.9,440.2 	"/>
	<path d="M150,262c5.1,4.6,12.9,4.2,17.5-0.8c4.6-5.1,4.2-12.9-0.8-17.5c-27-23.8-42.4-58-42.4-94c-0.1-37.8,16.8-73.5,46-97.5
		c53.7-44,132.9-36.1,176.8,17.6c44,53.7,36.1,132.9-17.6,176.8c-0.1,0.1-0.2,0.2-0.3,0.2c-5.1,4.4-5.6,12.2-1.2,17.3
		c2.1,2.9,5.5,4.6,9.1,4.5c3.1,0.2,6.2-0.8,8.5-2.9c5.8-4.8,11.3-10,16.3-15.7c55.3-61.8,49.9-156.7-11.9-212s-156.7-49.9-212,11.9
		S88.1,206.8,150,262z"/>
	<path d="M287.5,188.1c-0.1,0.1-0.2,0.2-0.3,0.2c-4.7,4.1-5.2,11.2-1.1,16c2.3,2.7,5.6,4.2,9.2,4.2c2.4,0.4,4.7-0.9,5.6-3.1
		c3.4-2.8,6.6-5.9,9.5-9.2c30.2-34.3,26.9-86.5-7.4-116.7c-34.3-30.2-86.5-26.9-116.7,7.4c-30.2,34.3-26.9,86.5,7.4,116.7
		c4.6,4,11.5,3.7,15.7-0.7c4.4-4.5,4.3-11.8-0.2-16.3c-12.6-11.4-19.8-27.6-19.8-44.5c0-33.1,26.9-59.9,60-59.9
		c33.1,0,59.9,26.9,59.9,60C309.4,160.1,301.4,177,287.5,188.1z"/>
	<path d="M415.8,484.9h-58.7l-9.2-32.1c0.6-3.1-0.3-6.2-2.4-8.5L306.8,309c-0.1-1.3-0.5-2.6-1.1-3.8l-40.7-142.3
		c7.1-4.6,11.9-12.6,11.9-21.7c0-14.2-11.5-25.7-25.7-25.7s-25.7,11.5-25.7,25.7c0,9.1,4.7,17.1,11.8,21.7l-60.7,211
		c-2,2-3.1,4.8-3.1,7.7c0,0.7,0.1,1.4,0.3,2.1l-29.1,101.2H91.6c-3.9,0-7.1,3.2-7.1,7.1v0c0,3.9,3.2,7.1,7.1,7.1h324.2
		c3.9,0,7.1-3.2,7.1-7.1v0C422.9,488,419.7,484.9,415.8,484.9z M306.9,390.7C306.9,390.7,306.9,390.7,306.9,390.7
		c0.9,0,1.7-0.1,2.4-0.3l12.2,42.2l-92.3-41.9H306.9z M303.7,371.1h-87.4l74.1-46L303.7,371.1z M277.5,280.3l-24.8-21h18.7
		L277.5,280.3z M250.6,187.1l15.2,52.6h-30.2L250.6,187.1z M228.4,264.7l44.2,37.3h-54.9L228.4,264.7z M212.1,321.6H260l-58.3,36.3
		L212.1,321.6z M190.9,395.5l98,44.7H178.1L190.9,395.5z M172.5,459.8h156.9l7.2,25.1H165.3L172.5,459.8z"/>
</g>
</svg>
