<?xml version="1.0" encoding="utf-8"?>
<!-- Generator: Adobe Illustrator 19.2.1, SVG Export Plug-In . SVG Version: 6.00 Build 0)  -->
<svg version="1.1" id="a0b07057-69da-4df5-aa27-3396ae961c89"
	 xmlns="http://www.w3.org/2000/svg" xmlns:xlink="http://www.w3.org/1999/xlink" x="0px" y="0px" width="500px" height="500px"
	 viewBox="0 0 500 500" enable-background="new 0 0 500 500" xml:space="preserve">
<title>shield-check</title>
<path d="M250,495l-4.8-1.6C29,408.5,35.4,94.7,35.4,81.9v-6.4l8-4.8c123.8-87.6,289.3-87.6,413.1,0l8,4.8v6.4
	c0,12.8,8,326.7-209.8,411.5L250,495z M79.4,105.1C79.4,143.8,88,379,250,446.3C412,379,420.6,143.8,420.6,105.1
	C317.8,34.5,182.1,34.5,79.4,105.1z"/>
<polygon points="206,348.5 116.3,258.7 149.2,228.8 206,285.6 370.9,117.8 403.8,150.7 "/>
</svg>
