<?xml version="1.0" encoding="utf-8"?>
<!-- Generator: Adobe Illustrator 19.2.1, SVG Export Plug-In . SVG Version: 6.00 Build 0)  -->
<svg version="1.1" id="_x32_3d5c71f-7219-4367-94eb-8acea50382f5"
	 xmlns="http://www.w3.org/2000/svg" xmlns:xlink="http://www.w3.org/1999/xlink" x="0px" y="0px" width="500px" height="500px"
	 viewBox="0 0 500 500" enable-background="new 0 0 500 500" xml:space="preserve">
<title>sliders</title>
<g>
	<circle fill="none" cx="252.2" cy="341.2" r="27.3"/>
	<path fill="none" d="M410.3,82.4c-15.1-0.3-27.5,11.6-27.9,26.7c-0.3,15.1,11.6,27.5,26.7,27.9h1.3h1.3v-0.2
		c13.5-1.3,23.9-12.3,24.6-25.8C436.9,96,425.4,83.2,410.3,82.4z"/>
	<path fill="none" d="M96.7,182.4c-15-1.4-28.3,9.7-29.7,24.7c-1.4,15,9.7,28.3,24.7,29.7c0.9-0.1,1.7-0.1,2.6,0
		c0.8-0.1,1.6-0.1,2.4,0c13.1-1.2,23.4-11.6,24.6-24.6C122.7,197.1,111.7,183.8,96.7,182.4z"/>
	<path d="M113.3,147.1v-120c0.8-10.5-7.1-19.7-17.6-20.5c-10.5-0.8-19.7,7.1-20.5,17.6c-0.1,1-0.1,1.9,0,2.9v120
		c-34.6,10.3-54.4,46.8-44,81.4c6.3,21.2,22.9,37.7,44,44v206.9c-0.8,10.5,7.1,19.7,17.6,20.5c10.5,0.8,19.7-7.1,20.5-17.6
		c0.1-1,0.1-1.9,0-2.9V272.6c34.6-10.3,54.4-46.8,44-81.4C151,170,134.4,153.4,113.3,147.1z M121.3,212.1
		c-1.2,13.1-11.5,23.4-24.6,24.6c-0.8,0-1.6-0.1-2.4,0c-0.9-0.1-1.7-0.1-2.6,0c-15-1.4-26-14.7-24.7-29.7c1.4-15,14.7-26,29.7-24.7
		C111.7,183.8,122.7,197.1,121.3,212.1z"/>
	<path d="M271.4,278.5V26.9c0.8-10.5-7.1-19.7-17.6-20.5S234,13.4,233.2,24c-0.1,1-0.1,1.9,0,2.9v251.6
		c-34.6,10.3-54.4,46.8-44,81.4c6.3,21.2,22.9,37.7,44,44v75.4c-0.8,10.5,7.1,19.7,17.6,20.5c10.5,0.8,19.7-7.1,20.5-17.6
		c0.1-1,0.1-1.9,0-2.9V404c34.6-10.3,54.4-46.8,44-81.4C309.1,301.4,292.6,284.8,271.4,278.5z M252.2,368.5
		c-15.1,0-27.3-12.2-27.3-27.3s12.2-27.3,27.3-27.3c15.1,0,27.3,12.2,27.3,27.3S267.3,368.5,252.2,368.5z"/>
	<path d="M475.9,109.7c0.1-28.8-18.7-54.3-46.3-62.7V26.9c0.8-10.5-7.1-19.7-17.6-20.5s-19.7,7.1-20.5,17.6c-0.1,1-0.1,1.9,0,2.9V47
		c-34.6,10.3-54.4,46.8-44,81.4c6.3,21.2,22.9,37.7,44,44v307c-0.8,10.5,7.1,19.7,17.6,20.5s19.7-7.1,20.5-17.6c0.1-1,0.1-1.9,0-2.9
		V172.5C457.1,164.1,476,138.6,475.9,109.7z M411.6,136.8v0.2h-1.3h-1.3c-15.1-0.3-27-12.8-26.7-27.9c0.3-15.1,12.8-27,27.9-26.7
		c15,0.7,26.6,13.5,25.9,28.6C435.5,124.5,425.1,135.5,411.6,136.8z"/>
</g>
</svg>
