<?xml version="1.0" encoding="utf-8"?>
<!-- Generator: Adobe Illustrator 19.2.1, SVG Export Plug-In . SVG Version: 6.00 Build 0)  -->
<svg version="1.1" id="_x36_17a320f-faf9-4ffd-8eff-f5a173a8b4bb"
	 xmlns="http://www.w3.org/2000/svg" xmlns:xlink="http://www.w3.org/1999/xlink" x="0px" y="0px" width="41.2px" height="43.2px"
	 viewBox="0 0 41.2 43.2" enable-background="new 0 0 41.2 43.2" xml:space="preserve">
<title>square-outline</title>
<g>
	<polygon fill="none" points="20.3,34.8 20.3,34.8 9,23.5 11.7,20.7 20.3,29.3 37.3,12.3 37.3,4.2 34.3,4.2 3.9,4.2 3.9,39 37.3,39 
		37.3,17.9 20.3,34.8 	"/>
	<polygon points="0,0 0,43.2 41.2,43.2 41.2,14 37.3,17.9 37.3,39 3.9,39 3.9,4.2 34.3,4.2 37.3,4.2 37.3,12.3 38.4,11.2 41.2,14 
		41.2,0 	"/>
	<polygon points="37.3,12.3 20.3,29.3 11.7,20.7 9,23.5 20.3,34.8 20.3,34.8 20.3,34.8 37.3,17.9 41.2,14 38.4,11.2 	"/>
</g>
</svg>
