<?xml version="1.0" encoding="utf-8"?>
<!-- Generator: Adobe Illustrator 19.2.1, SVG Export Plug-In . SVG Version: 6.00 Build 0)  -->
<svg version="1.1" id="_x34_21957b7-7495-4a49-8728-581cc8c67ad5"
	 xmlns="http://www.w3.org/2000/svg" xmlns:xlink="http://www.w3.org/1999/xlink" x="0px" y="0px" width="130.7px" height="82.8px"
	 viewBox="0 0 130.7 82.8" enable-background="new 0 0 130.7 82.8" xml:space="preserve">
<title>monitor</title>
<g>
	<polygon fill="none" points="120.2,10.5 99.2,10.5 75.5,37.2 70.3,32.5 89.9,10.5 76.3,10.5 47.8,42.5 42.6,37.8 66.9,10.5 
		10.5,10.5 10.5,60.9 120.2,60.9 	"/>
	<polygon points="58.5,69.9 58.5,78.4 31.2,78.4 27.9,82.8 102.8,82.8 99.5,78.4 72.2,78.4 72.2,69.9 	"/>
	<path d="M129.2,69.9V1.5H1.5v68.4h57h13.8H129.2z M10.5,60.9V10.5h56.4L42.6,37.8l5.2,4.7l28.5-32h13.6l-19.6,22l5.2,4.7l23.8-26.7
		h21v50.4H10.5z"/>
</g>
</svg>
