<?xml version="1.0" encoding="utf-8"?>
<!-- Generator: Adobe Illustrator 19.2.1, SVG Export Plug-In . SVG Version: 6.00 Build 0)  -->
<svg version="1.1" id="Layer_1" xmlns="http://www.w3.org/2000/svg" xmlns:xlink="http://www.w3.org/1999/xlink" x="0px" y="0px"
	 width="500px" height="500px" viewBox="0 0 500 500" enable-background="new 0 0 500 500" xml:space="preserve">
<g>
	<path d="M62.2,462c-5.4,0-10-2.1-13.7-5.8c-12.3-12.3-12-43.3-11.6-79.2c0.4-39.6,0.9-84.6-16.6-102.2c-5.1-5.2-11.7-7.9-19.9-7.9
		c0,0-0.1,0-0.1,0l0-12c0,0,0.1,0,0.1,0c11.4,0,21,3.9,28.4,11.4c21,21.1,20.5,68.7,20.1,110.7c-0.3,30.4-0.6,61.8,8.1,70.5
		c1.5,1.5,3.2,2.2,5.4,2.1c1.5,0,9.6-2.4,16.1-47c4.5-31.2,7-73.1,9.6-117.4c3.1-51.6,6.2-104.9,12.9-145.7
		c3.7-22.4,8.1-39,13.5-50.7c6.9-14.8,15.7-22.3,26.4-22.1c24.4,0.4,31.3,38.7,34.4,67.4c4,37.2,3.7,86.3,3.5,133.8
		c-0.2,44.6-0.5,86.9,2.6,118.7c4.1,43.2,12.9,48.2,16.4,48.2c0,0,0,0,0.1,0c4.8,0,13.9-6.6,20.7-49.1c5.1-32.2,7.5-76.1,9.9-118.4
		c2.3-41.9,4.7-85.5,9.7-117.5c4.2-26.9,11.6-57.9,31.4-57.9c0.1,0,0.1,0,0.2,0c19.6,1,27.6,29.9,32.4,55.6
		c5.7,30.6,9.1,72.2,12.3,112.3c3.4,41.7,6.9,84.9,13,116.9c7.8,40.6,17.2,49.4,23.7,49.5c0,0,0.1,0,0.2,0
		c8.8,0,15.9-15.2,20.7-43.9c4.8-29.2,6.7-69.3,8.5-108.1c4.1-89,7.7-165.8,42.1-165.8c0.1,0,0.1,0,0.2,0
		c14.8,0.1,25.2,8.5,30.9,24.7c4.6,13.1,6,29.9,7.5,47.6c3.6,44.2,8.2,73.2,38.4,73.2c0.2,0,0.4,0,0.6,0l0.1,12
		c-19.8,0.3-33.7-9.4-41.4-28.5c-6.4-15.8-8-35.9-9.6-55.5c-3.1-38-6.4-61.1-26.5-61.1c0,0-0.1,0-0.1,0c-9.2,0-16.6,15.3-21.5,44.7
		c-4.9,29.7-6.8,70.1-8.7,109.3c-4.1,87.6-7.6,163.3-41.1,163.3c-0.1,0-0.3,0-0.4,0c-34.2-0.7-40.8-82.6-48.4-177.4
		c-3.2-39.8-6.5-81-12.1-110.9c-7.4-39.6-16.1-45.6-20.7-45.6c-3.7,0-12.9,4.5-19.6,47.5c-4.9,31.4-7.3,74.4-9.6,116
		c-2.4,42.7-4.8,87-10,119.8c-4.4,27.5-12.1,59.2-32.5,59.2c-0.1,0-0.1,0-0.2,0c-20.1-1-25.7-31.7-28.3-59
		c-3.1-32.4-2.9-74.9-2.6-119.8c0.2-47.2,0.5-96-3.4-132.5c-5-46.6-15.1-56.6-22.6-56.7c-7.9-0.2-19.3,10.6-27.8,62.7
		c-6.6,40.1-9.8,93.3-12.8,144.6C93.4,398.2,88.4,461,62.5,462C62.4,462,62.3,462,62.2,462z"/>
</g>
</svg>
